<svg xmlns="http://www.w3.org/2000/svg" viewBox="0 0 434.2 140.23"><defs><style>.cls-1{font-size:101.01px;}.cls-1,.cls-2{fill:#fff;font-family:AldotheApache, Aldo the Apache;}.cls-2{font-size:48px;letter-spacing:0.05em;}.cls-3{fill:#f49819;}</style></defs><g id="Capa_2" data-name="Capa 2"><g id="Capa_1-2" data-name="Capa 1"><text class="cls-1" transform="translate(0 87.4)">fakeazon</text><text class="cls-2" transform="translate(376.26 87.4)">.es</text><path class="cls-3" d="M68.48,101.71a166.68,166.68,0,0,0,43.2,23A142.59,142.59,0,0,0,135.14,131c4,.77,8,1.23,12,1.6l6,.37h6a106.16,106.16,0,0,0,23.59-3.39l5.71-1.62a27.44,27.44,0,0,0,2.83-.91c.93-.32,1.86-.67,2.8-1l2.82-.93c.93-.34,1.83-.76,2.75-1.11,1.84-.73,3.7-1.42,5.53-2.2l5.42-2.52c.9-.42,1.84-.78,2.71-1.27l2.63-1.43c1.76-1,3.55-1.87,5.31-2.85s3.44-2.1,5.18-3.14L229,109.1l2.52-1.71,5.09-3.41c.88-.54,1.7-1.15,2.52-1.77s1.64-1.23,2.48-1.83c1.67-1.21,3.36-2.42,5.1-3.59l.64.64c-1.27,1.65-2.59,3.28-3.92,4.9-.66.81-1.35,1.61-2,2.41a31.17,31.17,0,0,1-2.1,2.35l-4.47,4.45c-.75.75-1.5,1.49-2.28,2.21l-2.43,2c-1.62,1.36-3.25,2.71-4.91,4s-3.48,2.44-5.23,3.65A113.64,113.64,0,0,1,209,130a96.75,96.75,0,0,1-24.33,8.29,129.91,129.91,0,0,1-25.55,1.89l-6.37-.32-6.33-.69c-4.2-.6-8.37-1.3-12.48-2.3a147,147,0,0,1-23.9-8,170.36,170.36,0,0,1-22.13-11.68,145.12,145.12,0,0,1-20-14.85Z"/><path class="cls-3" d="M229.79,95.87a26.79,26.79,0,0,1,4.68-2.52,39.5,39.5,0,0,1,4.69-1.62,41.47,41.47,0,0,1,4.72-1,44.78,44.78,0,0,1,4.75-.52l4.9-.3v4.71a46.5,46.5,0,0,1-1,9.5,38.11,38.11,0,0,1-1.32,4.74,25,25,0,0,1-2.2,4.72,25.29,25.29,0,0,1-2.19-4.73,39.93,39.93,0,0,1-1.33-4.7,45.46,45.46,0,0,1-1-9.4l4.89,4.42a46.46,46.46,0,0,1-4.87.08,45.2,45.2,0,0,1-4.9-.42,39.85,39.85,0,0,1-4.92-1A24.74,24.74,0,0,1,229.79,95.87Z"/></g></g></svg>