<svg xmlns="http://www.w3.org/2000/svg" viewBox="0 0 434.2 126.76"><defs><style>.cls-1{font-size:101.01px;}.cls-1,.cls-2{fill:#fff;font-family:AldotheApache, Aldo the Apache;}.cls-2{font-size:48px;letter-spacing:0.05em;}.cls-3{fill:#f49819;}</style></defs><g id="Capa_2" data-name="Capa 2"><g id="Capa_1-2" data-name="Capa 1"><text class="cls-1" transform="translate(0 87.4)">fakeazon</text><text class="cls-2" transform="translate(376.26 87.4)">.es</text><path class="cls-3" d="M68.34,101.62A444,444,0,0,0,114,112.5c7.67,1.43,15.37,2.66,23.09,3.61s15.44,1.72,23.17,2.1a182.85,182.85,0,0,0,23.07-.35c3.82-.26,7.6-.65,11.37-1.07s7.51-.93,11.21-1.61a98.62,98.62,0,0,0,21.59-6.11,68.3,68.3,0,0,0,19.22-12.24l.71.56a49,49,0,0,1-17,17.28A75.78,75.78,0,0,1,207.73,124a102.06,102.06,0,0,1-24.1,2.77c-4,0-8-.15-12-.39s-8-.59-11.92-1c-7.91-.8-15.76-2-23.55-3.37s-15.49-3.19-23.14-5.12-15.2-4.18-22.71-6.56-14.93-5-22.25-7.87Z"/><path class="cls-3" d="M229.79,95.87a26.79,26.79,0,0,1,4.68-2.52,39.5,39.5,0,0,1,4.69-1.62,41.47,41.47,0,0,1,4.72-1,44.78,44.78,0,0,1,4.75-.52l4.9-.3v4.71a46.5,46.5,0,0,1-1,9.5,38.11,38.11,0,0,1-1.32,4.74,25,25,0,0,1-2.2,4.72,25.29,25.29,0,0,1-2.19-4.73,39.93,39.93,0,0,1-1.33-4.7,45.46,45.46,0,0,1-1-9.4l4.89,4.42a46.46,46.46,0,0,1-4.87.08,45.2,45.2,0,0,1-4.9-.42,39.85,39.85,0,0,1-4.92-1A24.74,24.74,0,0,1,229.79,95.87Z"/></g></g></svg>